<!-- images/icons.svg -->
<svg xmlns="http://www.w3.org/2000/svg" style="display: none;">
  <symbol id="icon-instagram" viewBox="0 0 24 24">
    <path d="M16 12c-2.209 0-4-1.791-4-4s1.791-4 4-4 4 1.791 4 4-1.791 4-4 4zm0-6c-1.105 0-2 .895-2 2s.895 2 2 2 2-.895 2-2-.895-2-2-2z" fill="#4D5AE5"/>
    <path d="M12 2C6.477 2 2 6.477 2 12s4.477 10 10 10 10-4.477 10-10S17.523 2 12 2zm0 18c-4.411 0-8-3.589-8-8s3.589-8 8-8 8 3.589 8 8-3.589 8-8 8z" fill="#4D5AE5"/>
    <path d="M18.5 6.5c-.828 0-1.5.672-1.5 1.5s.672 1.5 1.5 1.5 1.5-.672 1.5-1.5-.672-1.5-1.5-1.5z" fill="#4D5AE5"/>
  </symbol>

  <symbol id="icon-twitter" viewBox="0 0 24 24">
    <path d="M23 3a10.9 10.9 0 0 1-3.14 1.53 4.48 4.48 0 0 0-7.86 3v1A10.66 10.66 0 0 1 3 4s-4 9 5 13a11.64 11.64 0 0 1-7 2c9 5 20 0 20-11.5a4.5 4.5 0 0 0-.08-.83A7.72 7.72 0 0 0 23 3z" fill="#4D5AE5"/>
  </symbol>

  <symbol id="icon-facebook" viewBox="0 0 24 24">
    <path d="M18 2h-3a5 5 0 0 0-5 5v3H7v4h3v8h4v-8h3l1-4h-4V7a1 1 0 0 1 1-1h3z" fill="#4D5AE5"/>
  </symbol>

  <symbol id="icon-linkedin" viewBox="0 0 24 24">
    <path d="M16 8a6 6 0 0 1 6 6v7h-4v-7a2 2 0 0 0-2-2 2 2 0 0 0-2 2v7h-4v-7a6 6 0 0 1 6-6z" fill="#4D5AE5"/>
    <rect x="2" y="9" width="4" height="12" fill="#4D5AE5"/>
    <circle cx="4" cy="4" r="2" fill="#4D5AE5"/>
  </symbol>

  <symbol id="icon-strategy" viewBox="0 0 64 64">
    <path d="M32 8C19.8 8 10 17.8 10 30c0 12.2 9.8 22 22 22s22-9.8 22-22C54 17.8 44.2 8 32 8zm0 36c-7.7 0-14-6.3-14-14s6.3-14 14-14 14 6.3 14 14-6.3 14-14 14z" fill="#4D5AE5"/>
    <path d="M32 18c-3.3 0-6 2.7-6 6s2.7 6 6 6 6-2.7 6-6-2.7-6-6-6z" fill="#4D5AE5"/>
    <path d="M32 30c-1.7 0-3 1.3-3 3s1.3 3 3 3 3-1.3 3-3-1.3-3-3-3z" fill="#4D5AE5"/>
  </symbol>

  <symbol id="icon-punctuality" viewBox="0 0 64 64">
    <circle cx="32" cy="32" r="30" fill="#4D5AE5"/>
    <path d="M32 20v12l8 8" stroke="#FFFFFF" stroke-width="4" stroke-linecap="round" stroke-linejoin="round"/>
  </symbol>

  <symbol id="icon-diligence" viewBox="0 0 64 64">
    <path d="M12 40L20 32l8 8 12-12 12 12 8-8L32 12l-8 8-8-8-8 8 8 8 8 8z" fill="#4D5AE5"/>
  </symbol>

  <symbol id="icon-technologies" viewBox="0 0 64 64">
    <path d="M32 12c-11 0-20 9-20 20s9 20 20 20 20-9 20-20-9-20-20-20zM18 32c0-6.6 5.4-12 12-12s12 5.4 12 12-5.4 12-12 12-12-5.4-12-12zm24 12c0-3.3-2.7-6-6-6s-6 2.7-6 6 2.7 6 6 6 6-2.7 6-6z" fill="#4D5AE5"/>
  </symbol>
</svg>